<svg version="1" xmlns="http://www.w3.org/2000/svg" width="3072" height="3072" viewBox="0 0 2304.000000 2304.000000"><path d="M682.7 819.6c-.2.2-3.1.7-6.3 1-3.2.2-7 .7-8.4.9-1.4.3-4.5.7-7 1-2.5.3-5.8.9-7.5 1.3-1.6.3-3.4.7-4 .8-.5 0-2.8.5-5 .9-5.5 1.2-5.5 1.2-5.7 1.5-.2.1-1 .3-1.8.5s-3 .8-4.7 1.4c-1.8.5-3.3.8-3.3.5 0-.2-1.3.2-3 1.1-1.6.8-3.3 1.5-3.7 1.5-1.2 0-7.3 2.1-11.8 4-13.5 5.7-23.5 10.5-23.5 11.1 0 .4-1.1 1-2.5 1.3-3.5.9-25.2 14.7-32.1 20.5-1.7 1.4-5 4.1-7.3 6-4.7 3.8-19.9 18.7-24.6 24.1-1.7 1.9-5.9 7.1-9.3 11.5-3.4 4.4-6.6 8.5-7.2 9.2-.5.7-1 1.4-1 1.6 0 .2-2.1 3.8-4.7 7.8-2.7 4.1-5.4 8.3-6 9.4-2.3 3.6-14.1 27.9-16.3 33.5-5.3 13.2-11.8 32.5-13.5 40-.1.8-.8 3.5-1.5 6-1.4 5.1-1.8 7-2.6 12-.3 1.9-.7 3.7-.9 4-.2.3-.6 2.6-.9 5-.4 2.5-.9 5.8-1.3 7.5-.3 1.6-.7 4.1-.8 5.5-1.2 10.5-1.7 14.9-2.1 17.2-2.4 15.1-2.4 156.4 0 168.5.3 1.2.8 5.3 1.1 9 .8 7.3 1.2 10.8 1.5 10.8.1 0 .3 1.6.5 3.5s.5 4.4.8 5.5c.2 1.1.8 4.2 1.2 7 .5 2.7.9 5.2 1 5.5 0 .3.7 2.8 1.4 5.6.7 2.9 1.4 5.8 1.5 6.5.8 3.9 5.4 20.5 6.3 22.9.6 1.5.9 2.6 1.6 5.2.2.7 1 2.9 1.9 4.9.9 2 1.9 4.7 2.3 6 2.5 8.3 18.2 40.9 20.6 42.9.3.3 1.4 2 2.4 3.9 2.2 4.4 13.4 19.9 19.8 27.6 7.8 9.3 24.9 25.7 33.5 32.2 9.9 7.4 14.1 10.3 15.2 10.3.4 0 1 .4 1.2.8.7 1.7 18.7 11.4 32 17.3 13.7 6 37.6 13.5 49.2 15.4 1.7.3 5.4 1 8.1 1.5 2.8.5 6.5 1.1 8.3 1.2 1.9.1 3.5.5 3.7.8.2.3 3.1.5 6.4.5 3.4 0 6.1.3 6.1.6 0 .7 53.9.3 58.5-.4 1.7-.3 5.5-.8 8.5-1.1 10.2-1.1 13.5-1.6 18.3-2.7 2.6-.6 5.1-.9 5.4-.5.3.3 1.1.2 1.7-.3.6-.5 2.9-1.2 5.1-1.5 6.6-1 32.5-9 40.4-12.4 2-.9 4.1-1.6 4.6-1.8.6-.1 4.9-2 9.6-4.3 4.8-2.2 9.2-4.1 9.8-4.1.6 0 1.1-.4 1.1-.8 0-.5 1.9-1.7 4.3-2.8 2.3-1 4.4-2.1 4.7-2.5.3-.3 1.6-1.2 3-1.9 3-1.5 21.6-14.6 24.8-17.5 10.2-9 27-26.6 31.2-32.6 1.3-1.9 2.7-3.6 3-3.9.3-.3 1.4-1.8 2.4-3.5 1.1-1.6 2.3-3.4 2.8-4 1.9-2.2 8-12.2 9.5-15.8.9-2 2-3.7 2.5-3.7.4 0 .8-.5.8-1.1 0-.6 1.5-4.3 3.4-8.2 3.5-7.3 8.5-19.8 9.1-23 .2-.9.7-2.2 1-2.7.3-.5.8-1.8 1-2.7.2-1 1.5-6.4 2.9-11.9 1.4-5.6 2.8-11.9 3.1-14 .3-2.2.9-5.3 1.2-6.9.3-1.7.7-4.6.9-6.5.6-7.4 1.3-13.1 1.9-14 .3-.5 0-1.2-.7-1.7-2-1.2-133.5-1-133.5.2-.1 3.6-1.6 17.8-2.4 21.5-.4 2.5-1.1 5.6-1.3 7-.5 2.5-2.5 10.5-3.2 12.8-.2.7-.4 1.6-.5 2 0 .4-.4 1.1-.9 1.7-.4.5-1.3 2.8-2 5s-2.4 5.7-3.7 7.7c-1.2 2.1-2.3 4.1-2.3 4.5-.1 1.2-6.9 10.4-11.2 15.1-4.2 4.6-16.1 14.2-17.6 14.2-.6 0-1.2.3-1.4.7-.3.9-13.1 7.5-15.1 7.9-.6.2-3.2 1-5.7 1.9-2.5.9-5.2 1.9-6 2.1-13.1 3.3-19.2 4.3-30 4.9-3.6.2-6.7.5-7 .6-.3.1-.9.1-1.3 0-.5-.1-6.1-.3-12.5-.6-6.4-.2-12.8-.7-14.2-.9-1.4-.3-3.6-.8-5-1.1-1.4-.3-3.4-.7-4.5-.9-1.1-.2-5.5-1.6-9.8-3-19.6-6.6-36.2-19.5-48.4-37.6-5.8-8.6-16.3-31.3-16.3-35.3 0-.7-.3-1.7-.7-2.1-.4-.4-.9-1.9-1.1-3.4-.2-1.4-.8-3.2-1.4-3.9-.6-.7-.8-1.3-.5-1.3.3 0-.1-2.4-.9-5.3-.7-2.8-1.8-7.7-2.4-10.7-.6-3-1.2-6.4-1.4-7.5-1.3-7.3-2.4-16-3.2-25-.2-3.3-.8-9.6-1.2-14-.4-4.4-.7-39.3-.7-77.5 0-60.8.4-80.3 1.9-92.5.2-1.7.6-5.5 1-8.5.3-3 .8-6.6 1.1-8 .3-1.4.7-4.2 1-6.2.8-6.2 3.4-17.8 5.5-25.3 1.2-3.9 2.3-7.7 2.5-8.5 1.6-6.5 12.1-30.1 13.8-30.8.4-.2.7-.8.7-1.4 0-.5 2.4-4.4 5.4-8.6 16.9-24 39.9-37.9 69.6-42.1 3.6-.5 13.9-.8 23-.6 17.2.4 21.2.7 27 2.1 1.9.4 3.8.7 4.2.6.4-.1 3.5.8 7 1.9 3.5 1.1 7 2.2 7.9 2.4 3.4.7 15.5 6.7 21.3 10.6 8.2 5.5 20.2 18.1 25.2 26.5 7.6 12.9 13.9 31.7 16 47.8.3 2.2.7 4.2.9 4.5.3.6 1.8 14.9 1.8 17.8 0 1 14.1 1.3 66.9 1.3h66.9l-.5-3.3c-.3-1.7-1-6.6-1.6-10.7-.5-4.1-1.2-8.5-1.4-9.6-.2-1.2-.7-3.7-1-5.5-.8-4.8-1.4-7.7-2.6-13-.6-2.6-1.2-5.3-1.3-6-.2-.8-.6-1.9-.9-2.5-.4-.6-1-2.4-1.3-4.1-.2-1.7-1.8-7.1-3.4-11.9-13.1-39.9-33.2-71-62.6-96.4-20.3-17.5-51.1-33.9-79.5-42.3-7.4-2.2-14-3.9-14.7-3.8-.2 0-1.7-.5-3.5-1s-4.4-1.1-5.8-1.4c-12.3-2.2-20.2-3.5-20.8-3.4-.4.1-.9.1-1.2-.1-.7-.2-5.4-.8-13-1.6-7.6-.7-58.6-1.5-59.3-.8zM1010.6 825.7c1.4 3.8 3.5 9.5 4.6 12.8 1 3.3 2.3 6.9 2.8 8 1.8 4.1 8 21.8 8 22.8 0 .5.6 2.3 1.4 4 .8 1.8 2.8 7.2 4.6 12.2 1.7 4.9 3.5 9.8 4 10.7.6 1 1 2.6 1 3.6s.4 2.2.8 2.7c.4.6 1.4 2.8 2.1 5 .7 2.2 1.6 4.9 2.1 6 .9 2 4.9 13.2 5.4 15 .2.5.8 2.2 1.4 3.8.7 1.5 1.4 3.8 1.6 5.1.2 1.3.9 3.2 1.4 4.2.9 1.7 2.3 5 2.7 6.4.4 1.8 2.8 8.8 3.5 10.5 1.6 3.8 4.2 11 4.5 12.5.5 2 4.3 12.7 5.9 16.5.7 1.6 2.2 5.7 3.4 9 8.7 24.9 19.5 55.4 20.3 57 .6 1.2 1.1 2.7 1.3 3.5.2.8.6 2.2.9 3 1.7 4.3 13.7 37.8 21.7 60.5 1.6 4.4 4.7 13.2 7 19.5 2.3 6.3 4.3 11.9 4.4 12.5.1.5.4 1.4.7 2 .5.8 3 7.6 3.4 9.5.1.3.5 1.3.8 2.2 1.6 4.1 2 5.4 2.3 6.3.1.5 1.6 4.8 3.4 9.5 1.8 4.7 3.3 8.9 3.4 9.5.3 1.2 1.4 4.1 2.6 7 .9 2.1 14.1 39.6 16.1 45.5.7 1.9 1.6 4.4 2 5.5 1.3 3.1 14 38.5 15.4 43 .8 2.2 2.5 7.1 4 11 1.4 3.8 3.3 9 4.1 11.5.8 2.5 1.9 5.4 2.4 6.5.4 1.1 1.5 4 2.3 6.5.9 2.5 3.8 10.8 6.7 18.5 2.8 7.7 5.3 15.1 5.6 16.5.3 1.3.8 2.9 1.3 3.5.4.5 1.3 2.8 2 5s1.8 5.6 2.6 7.5c2 5.3 2.8 7.4 2.9 8 .1.3.9 2.5 1.8 5s3.1 8.5 4.8 13.5c1.7 4.9 3.4 9.7 3.7 10.5.3.8.7 1.9.9 2.5.2.5 1.4 3.9 2.7 7.5 1.3 3.6 2.7 7.2 2.9 8 .3.8 1.4 3.7 2.4 6.5 1 2.7 1.9 5.4 2 6 .2.5 1.2 3.5 2.4 6.5s2.3 5.9 2.4 6.5c.2.5.6 1.7.9 2.5.3.8 1.5 4.2 2.7 7.5 1.1 3.3 2.3 6.7 2.7 7.5.3.8.7 1.9.9 2.5.1.5.7 2.2 1.3 3.8l1.1 2.7 67.6-.2 67.6-.3 2.4-6.5c1.4-3.6 2.6-7.2 2.8-8 .2-.8 1.1-3.3 1.9-5.5.8-2.2 1.8-4.9 2.3-6 .4-1.1.8-2.5 1-3 .4-1.7 9.5-26.9 10.4-29 .5-1.1 2.7-7.4 5-14s4.6-13.1 5.2-14.5c.5-1.4.9-2.6.9-2.8-.1-.1.6-1.6 1.4-3.2.8-1.6 1.5-3.2 1.4-3.5-.1-.6 3.9-12.5 6.6-19.5.7-1.9 2.5-6.8 3.9-10.8 6.7-18.6 7.8-21.8 8.6-23.7.7-1.7 3.1-8.6 3.5-10.5.1-.3.5-1.2.8-2 1-2.3 7.6-20.8 9.7-27 1-3 2.8-8 4-11 1.2-3 2.3-6.3 2.5-7.2.2-.9.8-2.5 1.3-3.5.6-1 1-2 1-2.3.1-.5 1.8-5.4 2.9-8 .3-.8.7-2 .8-2.5 0-.6.5-1.9.9-3 2-5.1 4-10.4 5.6-15.5 1-3 3.5-10 5.5-15.5 2.1-5.5 4-10.9 4.3-12 .2-1.1.8-2.5 1.2-3 .4-.6 1.1-2.6 1.5-4.5.4-1.9 1.1-4.1 1.5-5 .8-1.5 3.4-8 3.6-9 0-.3.3-1.2.6-2s1.6-4.4 2.9-8c1.2-3.6 2.7-7.6 3.2-9 .6-1.4 1.1-2.8 1.2-3.3.2-.4.4-.9.5-1.2.1-.3.3-.8.5-1.3.1-.4.4-1.4.8-2.2.3-.8 1.2-3.5 2.1-6 2-6 8.5-24.1 9.3-26 .3-.8.7-2 .9-2.5.1-.6 2.1-6.2 4.4-12.5 2.3-6.3 5.1-14.2 6.2-17.5 1.1-3.3 2.6-7.4 3.3-9 .7-1.7 3-8 5-14 2.1-6.1 4.2-12.1 4.8-13.5 1.4-3.5 8-22.2 13.4-37.5 2.5-7.2 4.9-13.8 5.5-14.8.5-1 1.1-2.6 1.3-3.5.2-.9 2.2-6.9 4.5-13.2 6.1-16.6 14.1-39.3 14.4-40.5.2-.6.8-2.1 1.4-3.5 1.7-4.1 6.3-17.5 6.1-18-.1-.3.7-2.3 1.8-4.5 1.2-2.2 2.1-4.3 2.2-4.8.1-.4.1-.8.2-1 0-.1.2-.9.4-1.7.2-.8 1.5-4.7 3-8.5 1.4-3.9 2.8-7.5 2.9-8 .4-1.3 1.6-4.5 2.6-7 .5-1.1 3.8-10.6 7.5-21 3.6-10.5 7.5-21.3 8.5-24 3.5-9.6 6.2-17 7-19.5.4-1.4 1.9-5.5 3.3-9.3l2.6-6.7-65.6.2-65.6.3-3.4 9.5c-1.8 5.2-3.6 10.2-4 11-.3.8-.7 1.7-.7 2-.2.9-6.8 19.5-7.6 21.5-.5 1.1-2.5 6.7-4.5 12.5s-4.1 11.4-4.5 12.5c-1.6 3.8-7 19.1-7 19.9 0 .4-.6 2.2-1.4 3.9-.7 1.8-2.1 5.2-2.9 7.7-.9 2.5-4.5 12.8-8.2 23-3.7 10.2-7.3 20.5-8.2 23-.8 2.5-1.8 5.2-2.1 6-.3.8-.6 2-.7 2.5-.2.6-1.2 3.3-2.3 6-2.6 6.5-6.7 17.9-6.5 18.2.1.2-.5 2-1.4 4-.8 2.1-3.7 9.9-6.3 17.3-8.9 25-13 36.5-13.7 38-.3.8-.7 1.9-.9 2.5-.1.5-1.4 4.1-2.7 8-1.4 3.8-3.5 9.7-4.7 13-1.1 3.3-2.4 6.7-2.7 7.5-.3.8-.7 1.9-.8 2.5-.5 1.7-4.6 12.9-5.3 14.5-.5.8-1.7 4.2-2.7 7.5-1.1 3.3-2.2 6.2-2.5 6.5-.3.3-.6 1.2-.8 2-.1.8-1.6 5.2-3.3 9.8-1.7 4.6-3.2 8.9-3.3 9.5-.2.7-.8 2.3-1.3 3.7-1.5 3.6-9.4 26.3-9.6 27.5-.1.5-.4 1.2-.7 1.5-.3.3-2 5-3.9 10.5s-3.9 11.1-4.4 12.5c-.6 1.4-1.1 2.7-1.1 3-.1.3-.9 2.5-1.8 5-3.6 9.9-10.9 30.3-15.7 44-6.3 17.8-5.8 16.4-5.9 17-.1.8-5.2 14.3-6.2 16.5-.4 1.1-2.7 7.4-5 13.9-2.2 6.6-4.2 12.2-4.5 12.4-.2.2-.8-1.1-1.3-3-.6-1.8-2.4-7.1-4.2-11.8-1.7-4.7-3.8-10.5-4.6-13-.8-2.5-1.9-5.4-2.4-6.5-1-2.4-5-13.5-9.7-27-1.9-5.5-5.5-15.6-8-22.5-2.4-6.9-5.6-15.7-7-19.5-1.3-3.9-3.3-9.3-4.3-12-1-2.8-3.3-9.1-5-14-1.7-5-4-11.3-5-14-1-2.8-3.7-10.4-6-17s-4.6-12.9-5-14c-.4-1.1-2.5-6.7-4.5-12.5s-4.1-11.4-4.6-12.5c-1-2.4-4.9-13.4-5.4-15.5-.2-.8-1.8-5.1-3.4-9.5-1.7-4.4-3.1-8.3-3.1-8.7 0-.4-.5-1.9-1.2-3.5-.6-1.5-1.2-3-1.3-3.3-.1-.3-.4-1.2-.8-2-.3-.8-1.2-3.5-2-6-1.4-4.3-3.9-11.1-5.7-15.5-1.2-2.9-6.4-17.8-6.6-19-.2-.6-1.5-4.2-2.9-8-1.5-3.9-5.3-14.4-8.5-23.5s-7.9-22.4-10.5-29.5c-2.5-7.2-5.3-14.8-6-17-3-8.9-8.6-24.1-9.6-26-.5-1.2-1.1-2.7-1.3-3.5-.1-.8-1-3.8-2-6.5-3.4-9.4-5.4-15-8.1-22.5-1.5-4.1-2.9-8.2-3.2-9-.4-.8-.7-1.7-.7-2-.1-.3-.9-2.5-1.8-5s-4-11-6.8-19-5.4-15.4-5.9-16.5c-.5-1.1-1.9-4.9-3.1-8.5-1.1-3.6-2.6-7.5-3.2-8.8l-1.1-2.2h-130.6l2.5 6.7zM1746.1 824.5c-1.1 3-2.3 6.7-2.7 8.2-.4 1.5-1.2 3.7-1.7 4.8-.6 1.1-1.2 2.4-1.3 3-.2 1.2-7.7 22.7-11 31.5-1.3 3.6-2.4 6.8-2.4 7.2 0 .4-.5 1.9-1.2 3.5-.6 1.5-1.2 3.2-1.4 3.8-.1.5-2.3 6.8-4.9 14-2.5 7.1-4.8 13.7-5 14.5-.3 1.2-3.5 10.6-6.3 18-.3.8-.6 1.9-.8 2.5-.2.9-4.9 14.2-6.1 17.5-1.2 3.1-9.5 26.5-9.7 27.5-.2.5-.5 1.7-.9 2.5-1.2 3.3-6.2 17.5-6.3 18 0 .3-.4 1.2-.7 2-.3.8-5.2 14.5-10.7 30.5-5.6 15.9-11.8 33.9-13.9 40-2.1 6-4.3 12.3-4.9 14-.6 1.6-3.3 9.5-6.2 17.5-5.8 16.4-8 23.2-7.7 24.1.1.4-.7 1.6-1.7 2.8-1.1 1.2-1.6 2.1-1.3 2.1.3 0-1.5 5.7-4 12.7-2.4 7.1-4.6 13.2-4.7 13.8-.2.5-.8 2.2-1.3 3.6-.6 1.4-1.7 4.5-2.4 7-.7 2.4-1.8 4.7-2.4 5.1-.5.4-.7.8-.3.8.4 0-.9 4.4-2.9 9.7-1.9 5.4-3.6 10.2-3.7 10.8-.2.5-.6 1.7-.9 2.5-.4.8-1.8 4.9-3.1 9-1.4 4.1-3.4 9.8-4.5 12.7-1 2.8-1.6 5.4-1.3 5.7.3.3.1.6-.5.6s-1.3 1.2-1.6 2.7c-.4 2.2-7.3 22.3-10 29.3-.3.8-2.4 6.9-4.7 13.5-2.3 6.6-5.2 14.9-6.5 18.5-1.3 3.6-3.3 9.4-4.5 13-1.2 3.6-4.7 13.5-7.7 22s-6.1 17.5-7 20c-.8 2.5-1.8 5.4-2.3 6.5-1.2 2.9-14.1 39.7-14.5 41.5-1 4.5-7.1 20.6-8 21.2-.5.4-.7.8-.4.8.4 0-1.3 5.7-3.8 12.7-2.5 7.1-5.5 15.9-6.8 19.8-4.1 11.9-6.5 18.9-7.5 21-.5 1.1-1.6 4.5-2.6 7.5-.9 3-1.9 5.9-2.1 6.5-.2.7 21.3 1 63.3 1 62.2 0 63.6-.1 64.7-2 .6-1.1 1.2-2.5 1.3-3 .2-.6 1.6-4.8 3.2-9.5 1.7-4.7 6-17.1 9.7-27.5 3.7-10.5 7.3-20.8 8-23 .7-2.2 1.8-5.1 2.4-6.5 1-2.4 16-45.4 16.5-47.5.2-.6.8-2.1 1.3-3.5.6-1.4 2.4-6.6 4.1-11.5 3.9-11.6 13.6-39.1 15.2-43 .6-1.7 1.1-3 1-3-.1 0 .4-1.4 1-3 .7-1.7 1.3-3.7 1.5-4.5.4-1.6 10.1-29.5 11.2-32 .3-.8.7-1.7.7-2 .1-.3 1.9-5.5 4-11.5 4.3-12.4 4.8-13.9 4.6-14.3 0-.1.7-1.6 1.5-3.2.9-1.7 1.3-3 1-3-.3 0 0-1 .7-2.3.6-1.2 1.3-2.7 1.5-3.2.5-2.2 8.9-26.1 9.4-27 .4-.6 1-2.4 1.4-4 1-3.6 1-3.6 1.8-5.5.4-.8 3.4-9.4 6.8-19 3.3-9.6 9.1-26.3 12.8-37 3.8-10.7 8.3-23.6 10-28.5 1.8-5 3.3-9.5 3.4-10 .2-.6.5-1.5.9-2 .3-.6 1.5-3.9 2.7-7.5 1.1-3.6 3.3-10.1 4.9-14.5 1.6-4.4 3.2-8.7 3.5-9.5 2.4-6.6 7.9-22.8 8.2-24 .2-.8.9-2.9 1.5-4.5.7-1.7 4.1-11.3 7.7-21.5 7.9-22.8 13.5-38.6 16.3-46.5 1.2-3.3 2.3-6.7 2.5-7.5.2-.8.9-2.9 1.6-4.5.6-1.7 1.3-3.5 1.5-4 .3-1.3 12.3-35.7 19.9-57 3.1-8.8 5.8-16.5 5.9-17.2.1-.7.5-1.6.9-1.9.4-.4.7-1.3.7-2s.5-2.5 1.2-4.1c1.8-4.4 6.8-18.6 7.3-20.6.4-1.7 5.1-15.1 8.1-23 .8-2 1.4-4 1.4-4.2 0-.3-28.8-.5-63.9-.5h-64l-2 5.5zM333 973.2c-19 7.6-39.7 15.9-46 18.3-6.3 2.5-12.4 5-13.5 5.5-1.1.5-4.5 1.9-7.5 3.1-3 1.1-6.6 2.6-8 3.2-1.4.6-2.7 1.1-3 1.2-.3.1-1.8.7-3.5 1.4-1.6.6-8.2 3.2-14.5 5.8-6.3 2.5-12.8 5.1-14.5 5.8-1.6.7-8.8 3.6-16 6.4-7.1 2.8-13.8 5.6-14.7 6.1-1 .6-2.2 1-2.8 1-.5 0-3.5 1.2-6.7 2.6-3.2 1.5-8.5 3.7-11.8 4.9-5.5 2.1-38.7 15.3-44.5 17.8-1.4.6-2.7 1.1-3 1.2-.7.2-6.1 2.4-8 3.2-.8.3-1.8.7-2.1.7-.3.1-2.8 1.1-5.5 2.3-5.5 2.4-23.5 9.7-30.4 12.3-4.9 1.8-9.6 3.7-12 4.7-.8.3-1.7.7-2 .8-.3.1-1.6.6-3 1.2s-7.2 3-13 5.3-11.6 4.7-13 5.3c-1.4.6-2.7 1.1-3 1.1-.3.1-2.6.9-5 2-2.5 1-5.4 2.2-6.5 2.7-1.1.4-5.3 2.2-9.4 3.8-4 1.7-7.9 3.1-8.7 3.1-1.2 0-1.4 7.3-1.4 45.8v45.8l3.3 1.3c1.7.8 5.2 2.2 7.7 3.1 2.5 1 6.8 2.7 9.5 3.8 10.5 4.2 47.1 18.9 49 19.7 1.1.5 2.2.9 2.5 1 .3.1 1.8.7 3.3 1.3 1.6.7 3 1.2 3.2 1.2.3 0 2.8 1.1 5.7 2.3 2.9 1.3 6.9 3 8.8 3.7 4 1.5 8.4 3.3 13.4 5.5 1.9.8 4 1.5 4.8 1.5.7 0 2.2.7 3.2 1.5 1.1.8 2.6 1.5 3.3 1.5.7 0 3.6 1.1 6.5 2.4 2.9 1.3 15.2 6.3 27.3 11.1 12.1 4.8 23.9 9.5 26.2 10.6 2.4 1 4.7 1.9 5.1 1.9.5 0 2.2.6 3.8 1.4 1.6.8 18.7 7.7 37.9 15.4 19.3 7.7 38.4 15.5 42.5 17.2 4.1 1.7 8.2 3.3 9 3.5 1.5.4 11.9 4.5 17.5 7 1.7.7 7.5 3.1 13 5.3 16.9 6.7 35.8 14.3 39 15.6 1.7.7 6.8 2.8 11.5 4.6 4.7 1.8 9.1 3.8 9.8 4.3.6.5 1.3.6 1.3.1.1-.5.2-25.1.3-54.8l.1-53.8-2.7-1.4c-1.5-.8-3-1.4-3.3-1.3-.3 0-4-1.1-8.3-2.5-4.2-1.3-19.2-6.1-33.2-10.6-14-4.5-26.4-8.5-27.5-9-1.1-.5-4.2-1.5-7-2.3-2.7-.8-13.5-4.2-24-7.7-10.4-3.4-19.4-6.3-20-6.4-1.8-.4-34-10.8-36-11.6-1.1-.5-6.5-2.3-12-4-5.5-1.7-10.7-3.4-11.5-3.7-.8-.3-2.2-.8-3-.9-1.4-.4-51.7-16.9-59-19.5-6-2.1-6.5-2.2-7.2-2.1-.5.1-.8-.2-.8-.6 0-.4 2.8-1.8 6.3-3 13.6-4.7 26.2-9.2 26.5-9.3.1-.1.5-.2 1-.3.4-.1 1.2-.4 1.7-.7.6-.4 2.6-1 4.5-1.4 1.9-.4 4.1-1.1 5-1.6.8-.4 4-1.5 7-2.4 3-.9 6.2-1.9 7-2.2 1.8-.8 1.5-.7 7-2.2 2.5-.7 5-1.6 5.5-1.9.6-.4 1.5-.7 2.1-.8 1.4-.2 29-9.2 33.4-10.9 5.1-1.9 71.4-23.5 72-23.4.3 0 2.3-.6 4.5-1.4 2.2-.8 4.9-1.8 6-2.3 1.1-.4 2.5-.8 3-.9 2.4-.6 12.2-3.8 14-4.6 1.8-.7 18.2-6.2 19.5-6.4.3-.1 7-2.3 15-4.9l14.5-4.8V1014c0-29.6-.2-54-.5-54.3-.3-.2-16 5.8-35 13.5zM1929.8 960.3c-.3.7-.4 25-.4 54.2l.1 52.9 7 2.3c3.9 1.2 7 2.3 7 2.3 0 .1.7.3 1.5.5.8.1 7.8 2.3 15.5 4.8s19 6.1 25 8c6.1 1.9 20.5 6.5 32 10.2 11.6 3.6 22.6 7.2 24.5 7.8 1.9.6 3.7 1.2 4 1.2.3.1 1.2.4 2 .7 1.9.8 22.3 7.2 23 7.3.3.1 4.6 1.4 9.5 3 5 1.6 9.2 3 9.5 3 .3.1 4.3 1.4 9 2.9s9 2.9 9.5 3c.6.2 1.7.6 2.5.9 1.2.5 36.3 11.8 38 12.2.3.1 1.9.5 3.5.9 1.7.4 3.9 1.1 5 1.6 2.5 1 10.9 3.8 24.3 8 5.7 1.8 10 3.6 9.5 3.9-.8.8-26 9-29.3 9.6-1 .2-2.8.8-3.9 1.4-1.1.6-2.9 1.1-4 1.1-1.2 0-2.1.5-2.1 1 0 .6-.3.9-.7.8-.7-.2-10.6 2.5-14.3 3.9-.8.4-1.8.7-2.2.8-.5.2-.9.3-1 .5-.2.1-1 .3-1.8.5-.8.1-6.2 1.8-12 3.8-5.8 1.9-17.9 5.8-27 8.7-9.1 2.8-17.4 5.6-18.5 6-1.1.5-4.5 1.6-7.5 2.5-3 .9-6.2 1.9-7 2.2-.8.3-1.9.7-2.5.9-.5.1-3.2 1-6 1.9-2.7 1-5.4 1.8-6 1.9-.5.2-15.8 5.1-33.9 11-18.1 6-33.4 10.9-34 11.1-.6.1-1.8.5-2.6.8-.8.3-8.7 2.9-17.5 5.7-8.8 2.9-18.7 6.1-22 7.2l-6 2v54.2c.1 46.8.3 54.1 1.5 53.8 1.6-.3 28-10.6 31.5-12.2 1.1-.5 4.7-1.9 8-3.1 3.3-1.2 6.4-2.5 6.9-3 .6-.5 1.7-.9 2.6-.9.8 0 3.2-.9 5.3-2 2-1.1 3.8-2 3.9-1.9.2 0 1.6-.4 3.1-1 1.6-.6 3.1-1.1 3.3-1.1.3 0 2.6-1 5.2-2.1 2.5-1.2 5.1-2.2 5.7-2.4.5-.1 2.4-.7 4-1.4 1.7-.7 12.7-5 24.5-9.7 22.4-8.8 25.4-10 28.2-11.5 1-.5 2.3-.9 2.8-.9.6 0 3-.8 5.3-1.9 2.3-1 10.3-4.2 17.7-7.1 7.4-2.9 14.9-5.8 16.5-6.5 1.7-.7 8.2-3.3 14.5-5.8 6.3-2.5 20.3-8 31-12.2 10.7-4.2 22.2-8.8 25.5-10 3.3-1.3 7.4-2.9 9-3.6 1.7-.7 3.2-1.3 3.5-1.4.3-.1 1.4-.5 2.5-1 1.1-.4 9.9-3.9 19.5-7.8 9.6-3.8 18.6-7.4 20-8 1.4-.5 3-1.1 3.5-1.2 1.2-.3 54.2-21.2 57-22.5 1.1-.5 4.3-1.8 7-2.9l5-1.9.3-45.9.2-45.9-8.7-3.3c-4.9-1.8-10.4-4-12.3-4.8-6.1-2.6-7.3-3.1-17-6.8-27.6-10.7-37.7-14.7-39.5-15.5-1.1-.5-9.4-3.8-18.5-7.3-9.1-3.6-17.4-6.8-18.5-7.2-1.1-.5-2.3-.7-2.7-.7-.5.1-.8-.2-.8-.8 0-.5-.6-1-1.4-1-1.3 0-14-4.7-19.1-7-1.1-.5-4.5-1.9-7.5-3s-6.4-2.4-7.5-2.9c-1.1-.5-3.6-1.6-5.7-2.5-2-.9-3.8-1.6-4.1-1.6-.3 0-1.8-.5-3.4-1.2-1.5-.6-3-1.2-3.3-1.3-.3-.1-1.8-.7-3.5-1.4-1.6-.6-6.6-2.5-11-4.2-4.4-1.7-9.3-3.7-11-4.4-1.6-.7-6.1-2.5-10-4-3.8-1.4-7.9-3-9-3.5-1.1-.4-4.5-1.8-7.5-3-3-1.1-6.4-2.5-7.5-3-1.1-.4-8.1-3.2-15.5-6-7.4-2.9-14.8-5.9-16.5-6.6-1.6-.7-6.1-2.4-10-3.9-3.8-1.5-7.9-3-9-3.5-1.1-.5-5.1-2.1-9-3.5-3.8-1.5-8.3-3.3-10-4-1.6-.7-6.8-2.7-11.5-4.5-4.7-1.8-9.8-3.8-11.5-4.5-4.7-2.1-13.8-5.7-15-6-.5-.1-2.1-.7-3.5-1.2-1.4-.6-6.1-2.5-10.5-4.2-4.4-1.7-8.9-3.5-10-4-8.6-3.7-12.4-4.8-12.7-3.8z"/></svg>